{
	"nodes":[{
		"name":"空白",
		"translation":[0.0,
		0.0,
		0.0],
		"rotation":[-0.7071067690849304,
		0.0,
		0.0,
		-0.7071067690849304],
		"scale":[1.0,
		1.0,
		1.0],
		"children":[1,
		2,
		3,
		4]
	},
	{
		"name":"管道",
		"translation":[0.0,
		0.0,
		0.0],
		"rotation":[0.00005223323023528792,
		-0.00005223868720349856,
		0.00005223868720349856,
		1.0],
		"scale":[1.0,
		1.0,
		1.0],
		"mesh":0
	},
	{
		"name":"管道.1",
		"translation":[0.0,
		0.0,
		0.0],
		"rotation":[-0.00005223868720349856,
		0.00005223323023528792,
		0.00005223322659730911,
		-1.0],
		"scale":[1.0,
		1.0,
		1.0],
		"mesh":1
	},
	{
		"name":"管道.2",
		"translation":[0.0,
		0.0,
		0.0],
		"rotation":[0.00005223323023528792,
		0.00005223868720349856,
		-0.00005223868720349856,
		1.0],
		"scale":[1.0,
		1.0,
		1.0],
		"mesh":2
	},
	{
		"name":"球体",
		"translation":[0.0,
		0.0,
		0.0],
		"rotation":[-0.7071067690849304,
		0.0,
		0.0,
		-0.7071067690849304],
		"scale":[1.0,
		1.0,
		1.0],
		"mesh":3
	}],
	"asset":{
		"version":"2.0",
		"generator":"Created using the official Cinema 4D glTF Exporter 1.000x284978"
	},
	"scenes":[{
		"nodes":[0]
	}],
	"meshes":[{
		"name":"管道",
		"primitives":[{
			"attributes":{
				"POSITION":1,
				"NORMAL":2,
				"TEXCOORD_0":3
			},
			"indices":0
		}]
	},
	{
		"name":"管道.1",
		"primitives":[{
			"attributes":{
				"POSITION":7,
				"NORMAL":8,
				"TEXCOORD_0":9
			},
			"indices":6
		}]
	},
	{
		"name":"管道.2",
		"primitives":[{
			"attributes":{
				"POSITION":13,
				"NORMAL":14,
				"TEXCOORD_0":15
			},
			"indices":12
		}]
	},
	{
		"name":"球体",
		"primitives":[{
			"attributes":{
				"POSITION":19,
				"NORMAL":20,
				"TEXCOORD_0":21
			},
			"indices":18
		}]
	}],
	"accessors":[{
		"bufferView":0,
		"type":"SCALAR",
		"componentType":5123,
		"count":14400,
		"byteOffset":0,
		"min":[0],
		"max":[2823]
	},
	{
		"bufferView":1,
		"type":"VEC3",
		"componentType":5126,
		"count":2824,
		"byteOffset":0,
		"min":[-2.0,
		-0.15000000596046449,
		-2.0],
		"max":[2.0,
		0.15000000596046449,
		2.0]
	},
	{
		"bufferView":1,
		"type":"VEC3",
		"componentType":5126,
		"count":2824,
		"byteOffset":12,
		"min":[-1.0,
		-1.0,
		-1.0],
		"max":[1.0,
		1.0,
		1.0]
	},
	{
		"bufferView":1,
		"type":"VEC2",
		"componentType":5126,
		"count":2824,
		"byteOffset":24,
		"min":[0.0,
		0.0],
		"max":[1.0,
		1.0]
	},
	{
		"bufferView":2,
		"type":"SCALAR",
		"componentType":5126,
		"count":301,
		"byteOffset":0,
		"min":[0.0],
		"max":[10.0]
	},
	{
		"bufferView":2,
		"type":"VEC4",
		"componentType":5126,
		"count":301,
		"byteOffset":1204,
		"min":[-0.000003552880343704601,
		-0.7071067690849304,
		-0.7069977521896362,
		-1.0],
		"max":[0.1924481987953186,
		0.7069977521896362,
		0.7071067690849304,
		1.0]
	},
	{
		"bufferView":3,
		"type":"SCALAR",
		"componentType":5123,
		"count":14400,
		"byteOffset":0,
		"min":[0],
		"max":[2823]
	},
	{
		"bufferView":4,
		"type":"VEC3",
		"componentType":5126,
		"count":2824,
		"byteOffset":0,
		"min":[-1.5,
		-0.15000000596046449,
		-1.5],
		"max":[1.5,
		0.15000000596046449,
		1.5]
	},
	{
		"bufferView":4,
		"type":"VEC3",
		"componentType":5126,
		"count":2824,
		"byteOffset":12,
		"min":[-1.0,
		-1.0,
		-1.0],
		"max":[1.0,
		1.0,
		1.0]
	},
	{
		"bufferView":4,
		"type":"VEC2",
		"componentType":5126,
		"count":2824,
		"byteOffset":24,
		"min":[0.0,
		0.0],
		"max":[1.0,
		1.0]
	},
	{
		"bufferView":5,
		"type":"SCALAR",
		"componentType":5126,
		"count":301,
		"byteOffset":0,
		"min":[0.0],
		"max":[10.0]
	},
	{
		"bufferView":5,
		"type":"VEC4",
		"componentType":5126,
		"count":301,
		"byteOffset":1204,
		"min":[-0.7071067690849304,
		-0.1924481987953186,
		-0.1924481987953186,
		-1.0],
		"max":[0.0,
		0.1924481987953186,
		0.1924481987953186,
		-0.7071067690849304]
	},
	{
		"bufferView":6,
		"type":"SCALAR",
		"componentType":5123,
		"count":14400,
		"byteOffset":0,
		"min":[0],
		"max":[2823]
	},
	{
		"bufferView":7,
		"type":"VEC3",
		"componentType":5126,
		"count":2824,
		"byteOffset":0,
		"min":[-1.0,
		-0.15000000596046449,
		-1.0],
		"max":[1.0,
		0.15000000596046449,
		1.0]
	},
	{
		"bufferView":7,
		"type":"VEC3",
		"componentType":5126,
		"count":2824,
		"byteOffset":12,
		"min":[-1.0,
		-1.0,
		-1.0],
		"max":[1.0,
		1.0,
		1.0]
	},
	{
		"bufferView":7,
		"type":"VEC2",
		"componentType":5126,
		"count":2824,
		"byteOffset":24,
		"min":[0.0,
		0.0],
		"max":[1.0,
		1.0]
	},
	{
		"bufferView":8,
		"type":"SCALAR",
		"componentType":5126,
		"count":301,
		"byteOffset":0,
		"min":[0.0],
		"max":[10.0]
	},
	{
		"bufferView":8,
		"type":"VEC4",
		"componentType":5126,
		"count":301,
		"byteOffset":1204,
		"min":[0.0,
		-0.7071067690849304,
		-0.7069977521896362,
		-1.0],
		"max":[0.1924481987953186,
		0.7069977521896362,
		0.7071067690849304,
		1.0]
	},
	{
		"bufferView":9,
		"type":"SCALAR",
		"componentType":5123,
		"count":2520,
		"byteOffset":0,
		"min":[0],
		"max":[493]
	},
	{
		"bufferView":10,
		"type":"VEC3",
		"componentType":5126,
		"count":494,
		"byteOffset":0,
		"min":[-0.22542496025562287,
		-0.2266666740179062,
		-0.22419005632400514],
		"max":[0.22542496025562287,
		0.2266666740179062,
		0.22419005632400514]
	},
	{
		"bufferView":10,
		"type":"VEC3",
		"componentType":5126,
		"count":494,
		"byteOffset":12,
		"min":[-0.9945205450057983,
		-1.0,
		-0.9891121983528137],
		"max":[0.9945205450057983,
		1.0,
		0.9891121983528137]
	},
	{
		"bufferView":10,
		"type":"VEC2",
		"componentType":5126,
		"count":494,
		"byteOffset":24,
		"min":[0.0,
		0.0],
		"max":[1.0,
		1.0]
	}],
	"bufferViews":[{
		"target":34963,
		"buffer":0,
		"byteOffset":0,
		"byteLength":28800
	},
	{
		"target":34962,
		"buffer":0,
		"byteOffset":28800,
		"byteLength":90368,
		"byteStride":32
	},
	{
		"buffer":1,
		"byteOffset":0,
		"byteLength":6020
	},
	{
		"target":34963,
		"buffer":2,
		"byteOffset":0,
		"byteLength":28800
	},
	{
		"target":34962,
		"buffer":2,
		"byteOffset":28800,
		"byteLength":90368,
		"byteStride":32
	},
	{
		"buffer":3,
		"byteOffset":0,
		"byteLength":6020
	},
	{
		"target":34963,
		"buffer":4,
		"byteOffset":0,
		"byteLength":28800
	},
	{
		"target":34962,
		"buffer":4,
		"byteOffset":28800,
		"byteLength":90368,
		"byteStride":32
	},
	{
		"buffer":5,
		"byteOffset":0,
		"byteLength":6020
	},
	{
		"target":34963,
		"buffer":6,
		"byteOffset":0,
		"byteLength":5040
	},
	{
		"target":34962,
		"buffer":6,
		"byteOffset":5040,
		"byteLength":15808,
		"byteStride":32
	}],
	"animations":[{
		"samplers":[{
			"input":4,
			"interpolation":"LINEAR",
			"output":5
		},
		{
			"input":10,
			"interpolation":"LINEAR",
			"output":11
		},
		{
			"input":16,
			"interpolation":"LINEAR",
			"output":17
		}],
		"channels":[{
			"target":{
				"node":1,
				"path":"rotation"
			},
			"sampler":0
		},
		{
			"target":{
				"node":2,
				"path":"rotation"
			},
			"sampler":1
		},
		{
			"target":{
				"node":3,
				"path":"rotation"
			},
			"sampler":2
		}]
	}],
	"buffers":[{
		"uri":"data:application/octet-stream;base64,",
		"byteLength":119168
	},
	{
		"uri":"data:application/octet-stream;base64,",
		"byteLength":6020
	},
	{
		"uri":"data:application/octet-stream;base64,",
		"byteLength":119168
	},
	{
		"uri":"data:application/octet-stream;base64,",
		"byteLength":6020
	},
	{
		"uri":"data:application/octet-stream;base64,",
		"byteLength":119168
	},
	{
		"uri":"data:application/octet-stream;base64,",
		"byteLength":6020
	},
	{
		"uri":"data:application/octet-stream;base64,",
		"byteLength":20848
	}]
}